<svg xmlns="http://www.w3.org/2000/svg" xmlns:xlink="http://www.w3.org/1999/xlink" width="195" height="34.421" viewBox="0 0 195 34.421">
  <defs>
    <clipPath id="clip-path">
      <path id="Path_236" data-name="Path 236" d="M0,12.159H195V-22.262H0Z" transform="translate(0 22.262)" fill="none"/>
    </clipPath>
  </defs>
  <g id="Group_2705" data-name="Group 2705" transform="translate(0 22.262)">
    <g id="Group_243" data-name="Group 243" transform="translate(13.113 -11.668)">
      <path id="Path_229" data-name="Path 229" d="M0,.155V23.088H7.381V-.284Z" transform="translate(0 0.284)" fill="#fff"/>
    </g>
    <g id="Group_250" data-name="Group 250" transform="translate(0 -22.262)" clip-path="url(#clip-path)">
      <g id="Group_244" data-name="Group 244" transform="translate(24.861 10.135)">
        <path id="Path_230" data-name="Path 230" d="M2.626,8.418l-7.4-.011v-22.9l6.585-.467.13,1.868h.095a7.59,7.59,0,0,1,5.808-2.325c4.588,0,7.222,3.372,7.222,9.34V8.418h-7.4V-5.89c0-2.6-.814-3.414-2.313-3.414A3.2,3.2,0,0,0,2.626-7.987Z" transform="translate(4.774 15.413)" fill="#fff"/>
      </g>
      <g id="Group_245" data-name="Group 245" transform="translate(46.769 3.505)">
        <path id="Path_231" data-name="Path 231" d="M4.744,5.173H.931V20.99H-6.513V5.173H-8.605L-8.624.159h2.088l.023-.926c0-4.693,2.812-8.614,10.854-8.7l.322,4.587C1.487-4.792.571-2.864.571-.632L.548.159H4.725Z" transform="translate(8.624 9.471)" fill="#fff"/>
      </g>
      <g id="Group_246" data-name="Group 246" transform="translate(61.912 10.135)">
        <path id="Path_232" data-name="Path 232" d="M7.105,5.488c0,4.648-3.313,8.748-10.034,8.748-6.672,0-9.987-4.057-9.987-8.748v-6.74c0-4.651,3.316-8.8,9.987-8.8,6.859,0,10.034,4.008,10.034,8.8ZM-5.468,5.127c0,2.6.908,3.552,2.539,3.552,1.82,0,2.635-.952,2.635-3.552V-.936c0-2.551-.815-3.556-2.635-3.556-1.77,0-2.539,1.005-2.539,3.556Z" transform="translate(12.916 10.049)" fill="#fff"/>
      </g>
      <g id="Group_247" data-name="Group 247" transform="translate(85.206 10.135)">
        <path id="Path_233" data-name="Path 233" d="M6.751,8.418h-7.4V-6.025C-.648-8.488-1.376-9.3-2.6-9.3A2.624,2.624,0,0,0-4.87-7.8V8.418h-7.4V-14.515l6.585-.441v2.049H-5.6A6.95,6.95,0,0,1-.057-15.413,5.651,5.651,0,0,1,5.119-12.5a7.912,7.912,0,0,1,6.219-2.916c4.54,0,7.037,2.782,7.037,9.34V8.418h-7.4V-6.025c0-2.325-.632-3.279-2.086-3.279-1.228,0-2.138.816-2.138,3.279Z" transform="translate(12.272 15.413)" fill="#fff"/>
      </g>
      <g id="Group_248" data-name="Group 248" transform="translate(118.714 10.135)">
        <path id="Path_234" data-name="Path 234" d="M2.644,4.812V6.318c0,2.55.952,3.6,3,3.6,1.541,0,2.448-.73,3.178-2.6l5.219,1.914c-1.409,4.192-4.176,6.2-9.262,6.2-6.177,0-9.583-3.875-9.583-8.8v-6.7c0-4.6,3.131-8.75,9.583-8.75,6.042,0,9.174,4.147,9.174,9.067V4.812Zm0-3.861H7.456V-.564c0-2.052-.862-2.828-2.407-2.828-1.725,0-2.4.824-2.4,2.828Z" transform="translate(4.807 8.811)" fill="#fff"/>
      </g>
      <g id="Group_249" data-name="Group 249" transform="translate(139.921 1.444)">
        <path id="Path_235" data-name="Path 235" d="M4.383,3.634l.124.158L4.474-6.171l7.4-.482V25.869H5.294l-.229-1.735H4.976A7.826,7.826,0,0,1-.837,26.324c-4.452,0-7.13-3.42-7.13-9.294V11.473c0-5.882,2.679-9.3,7.671-9.3A7.61,7.61,0,0,1,4.383,3.634m.091,5.7A2.974,2.974,0,0,0,1.932,8.147c-1.59,0-2.452.816-2.452,3.55v5.378c0,2.46.774,3.419,2.274,3.419a3.2,3.2,0,0,0,2.72-1.32Z" transform="translate(7.967 6.653)" fill="#fff"/>
      </g>
    </g>
    <g id="Group_251" data-name="Group 251" transform="translate(164.293 -11.668)">
      <path id="Path_237" data-name="Path 237" d="M0,.155V23.079l7.381.009V-.284Z" transform="translate(0 0.284)" fill="#fff"/>
    </g>
    <g id="Group_256" data-name="Group 256" transform="translate(0 -22.262)" clip-path="url(#clip-path)">
      <g id="Group_252" data-name="Group 252" transform="translate(175.211 10.135)">
        <path id="Path_238" data-name="Path 238" d="M.19,2.093A9.225,9.225,0,0,1,9.182-3.832c6.128,0,8.443,3.6,8.443,8.021V14.4a1.092,1.092,0,0,0,1.226,1.184h.592v4.142a10.86,10.86,0,0,1-3.271.549,5.524,5.524,0,0,1-4.54-1.772A8.215,8.215,0,0,1,6,20.41c-4.133,0-6.349-2.826-6.349-6.7S2.226,5.946,9.2,5.372l1.07-.073V4.189c0-2.008-1.053-2.737-2.55-2.737a4.707,4.707,0,0,0-3.9,2.608Zm10.08,12.439V9.369a5.178,5.178,0,0,0-1.133.093c-2.1.354-2.68,2.152-2.68,3.609,0,1.964.682,2.418,1.637,2.418a2.8,2.8,0,0,0,2.176-.957" transform="translate(0.346 3.832)" fill="#fff"/>
      </g>
      <g id="Group_253" data-name="Group 253" transform="translate(13.146 -0.001)">
        <path id="Path_239" data-name="Path 239" d="M2.232.4A3.665,3.665,0,0,1,2.085,5.57a3.633,3.633,0,0,1-5.146-.145A3.662,3.662,0,0,1-2.917.259,3.635,3.635,0,0,1,2.232.4" transform="translate(4.058 0.74)" fill="#fff"/>
      </g>
      <g id="Group_254" data-name="Group 254" transform="translate(164.282 0.023)">
        <path id="Path_240" data-name="Path 240" d="M2.231.4a3.651,3.651,0,0,1-.143,5.156A3.631,3.631,0,0,1-3.06,5.422,3.666,3.666,0,0,1-2.915.253,3.633,3.633,0,0,1,2.231.4" transform="translate(4.056 0.741)" fill="#fff"/>
      </g>
      <g id="Group_255" data-name="Group 255" transform="translate(0 26.526)">
        <path id="Path_241" data-name="Path 241" d="M2.339.422a3.839,3.839,0,0,1-.147,5.415,3.81,3.81,0,0,1-5.4-.148A3.843,3.843,0,0,1-3.06.274a3.816,3.816,0,0,1,5.4.148" transform="translate(4.251 0.773)" fill="#fff"/>
      </g>
    </g>
  </g>
</svg>
